<svg height="512" viewBox="0 0 192 192" width="512" xmlns="http://www.w3.org/2000/svg" xmlns:xlink="http://www.w3.org/1999/xlink"><linearGradient id="New_Gradient_Swatch_1" gradientUnits="userSpaceOnUse" x1="68" x2="132" y1="76" y2="12"><stop offset="0" stop-color="#34cdfa"/><stop offset="1" stop-color="#e8d9f1"/></linearGradient><linearGradient id="New_Gradient_Swatch_1-2" x1="70" x2="134" xlink:href="#New_Gradient_Swatch_1" y1="78" y2="14"/><path d="m136 112h-32v-16h-16v16h-32a8 8 0 0 0 -8 8v32h16v-24h64v16h16v-24a8 8 0 0 0 -8-8z" fill="#34cdfa"/><path d="m64 144h-20.687l-5.656-5.657a8 8 0 0 0 -5.657-2.343h-24a8 8 0 0 0 -8 8v40a8 8 0 0 0 8 8h56a8 8 0 0 0 8-8v-32a8 8 0 0 0 -8-8z" fill="#ccf2fe"/><path d="m16 176v-40h-8a8 8 0 0 0 -8 8v40a8 8 0 0 0 8 8h56a8 8 0 0 0 8-8h-48a8 8 0 0 1 -8-8z" fill="#99e6fd"/><path d="m184 144h-20.687l-5.656-5.657a8 8 0 0 0 -5.657-2.343h-24a8 8 0 0 0 -8 8v40a8 8 0 0 0 8 8h56a8 8 0 0 0 8-8v-32a8 8 0 0 0 -8-8z" fill="#ccf2fe"/><path d="m136 176v-40h-8a8 8 0 0 0 -8 8v40a8 8 0 0 0 8 8h56a8 8 0 0 0 8-8h-48a8 8 0 0 1 -8-8z" fill="#99e6fd"/><path d="m96 8c-16 8-40 8-40 8v48l40 32 40-32v-48s-24 0-40-8z" fill="#fff"/><path d="m136 48v-32s-24 0-40-8v40z" fill="url(#New_Gradient_Swatch_1)"/><path d="m56 48v16l40 32v-48z" fill="url(#New_Gradient_Swatch_1-2)"/><path d="m96 104a7.984 7.984 0 0 1 -5-1.753l-40-32a8 8 0 0 1 -3-6.247v-48a8 8 0 0 1 8-8c.216 0 22.345-.117 36.422-7.155a8 8 0 0 1 7.156 0c14.077 7.038 36.206 7.155 36.428 7.155a8 8 0 0 1 7.994 8v48a8 8 0 0 1 -3 6.247l-40 32a7.984 7.984 0 0 1 -5 1.753zm-32-43.845 32 25.6 32-25.6v-36.514c-8.133-.617-21.039-2.295-32-6.854-10.961 4.559-23.867 6.237-32 6.854z" fill="#ccf2fe"/></svg>