<svg id="color" enable-background="new 0 0 24 24" height="512" viewBox="0 0 24 24" width="512" xmlns="http://www.w3.org/2000/svg"><path d="m18.5 8h-15c-1.933 0-3.5-1.567-3.5-3.5 0-1.933 1.567-3.5 3.5-3.5h15c1.933 0 3.5 1.567 3.5 3.5 0 1.933-1.567 3.5-3.5 3.5z" fill="#cfd8dc"/><path d="m18.5 15h-15c-1.933 0-3.5-1.567-3.5-3.5 0-1.933 1.567-3.5 3.5-3.5h15c1.933 0 3.5 1.567 3.5 3.5 0 1.933-1.567 3.5-3.5 3.5z" fill="#90a4ae"/><path d="m18.5 22h-15c-1.933 0-3.5-1.567-3.5-3.5 0-1.933 1.567-3.5 3.5-3.5h15c1.933 0 3.5 1.567 3.5 3.5 0 1.933-1.567 3.5-3.5 3.5z" fill="#cfd8dc"/><path d="m11 1h-7.5c-1.933 0-3.5 1.567-3.5 3.5s1.567 3.5 3.5 3.5h7.5z" fill="#b4bcc0"/><path d="m11 8h-7.5c-1.933 0-3.5 1.567-3.5 3.5s1.567 3.5 3.5 3.5h7.5z" fill="#7d8f97"/><path d="m11 15h-7.5c-1.933 0-3.5 1.567-3.5 3.5s1.567 3.5 3.5 3.5h7.5z" fill="#b4bcc0"/><g fill="#fafafa"><circle cx="3.5" cy="4.5" r="1"/><circle cx="8.5" cy="4.5" r="1"/><circle cx="3.5" cy="11.5" r="1"/><circle cx="8.5" cy="11.5" r="1"/><circle cx="3.5" cy="18.5" r="1"/><circle cx="8.5" cy="18.5" r="1"/></g><path d="m4.5 4.5h-2c0 .553.448 1 1 1s1-.447 1-1z" fill="#dadada"/><path d="m9.5 4.5h-2c0 .553.448 1 1 1s1-.447 1-1z" fill="#dadada"/><path d="m4.5 11.5h-2c0 .553.448 1 1 1s1-.447 1-1z" fill="#dadada"/><path d="m9.5 11.5h-2c0 .553.448 1 1 1s1-.447 1-1z" fill="#dadada"/><path d="m4.5 18.5h-2c0 .553.448 1 1 1s1-.447 1-1z" fill="#dadada"/><path d="m9.5 18.5h-2c0 .553.448 1 1 1s1-.447 1-1z" fill="#dadada"/><path d="m23.491 11.826-5.25-1.786c-.156-.054-.326-.054-.482 0l-5.25 1.786c-.305.104-.509.389-.509.709v4.019c0 4.904 5.474 7.288 5.707 7.387.188.079.397.079.586 0 .233-.099 5.707-2.483 5.707-7.387v-4.019c0-.32-.204-.605-.509-.709z" fill="#4caf50"/><path d="m21.286 15.617-2.75 3.5c-.351.447-1.006.513-1.437.143l-1.75-1.5c-.42-.359-.469-.991-.108-1.41.359-.42.991-.468 1.409-.109l.958.821 2.105-2.679c.341-.435.969-.512 1.404-.169.435.341.511.97.169 1.403z" fill="#fff"/><path d="m18 10c-.082 0-.163.013-.241.04l-5.25 1.786c-.305.104-.509.389-.509.709v4.019c0 4.904 5.474 7.288 5.707 7.387.094.039.194.059.293.059v-4.532c-.082.021-.167.032-.252.032-.23 0-.46-.079-.649-.24l-1.75-1.5c-.42-.359-.469-.991-.108-1.41.198-.231.478-.35.76-.35.23 0 .461.079.649.24l.958.821.392-.498z" fill="#429846"/><path d="m16.001 16c-.282 0-.562.118-.76.35-.36.419-.311 1.051.108 1.41l1.75 1.5c.188.162.419.24.649.24.085 0 .17-.011.252-.032v-2.905l-.392.498-.958-.821c-.188-.161-.419-.24-.649-.24z" fill="#dedede"/></svg>